<svg preserveAspectRatio="none" width="100%" height="100%" overflow="visible" style="display: block;" viewBox="0 0 17.0013 18.5313" fill="none" xmlns="http://www.w3.org/2000/svg">
<g id="Group">
<path id="Vector" fill-rule="evenodd" clip-rule="evenodd" d="M7.82462 8.40306L3.57903 12.7003C-0.46964 9.78502 -1.19621 4.76403 2.1991 1.97846C5.37467 -0.626859 10.8016 -0.590106 14.8768 1.68284C15.3336 1.93759 16.2499 2.49555 16.893 3.11013C14.6121 2.71325 13.6815 2.78689 10.2416 6.12687L2.64407 5.23286L1.1689 6.12687L7.82462 8.40306Z" fill="var(--fill-0, #191716)"/>
<path id="Vector_2" fill-rule="evenodd" clip-rule="evenodd" d="M11.7966 7.95624L13.7493 6.44644C17.712 9.47751 18.1086 14.1193 14.6342 16.8056C11.1598 19.4919 4.00092 19.2672 0 14.5269C0 14.5269 0.34995 14.6679 0.76873 14.8367C1.6356 15.1859 2.62268 15.0493 3.3621 14.4776C5.33146 12.9549 9.04589 10.083 9.04589 10.083L9.79206 17.2445L11.0081 16.021L11.7966 7.95624Z" fill="var(--fill-0, #191716)"/>
</g>
</svg>
