<svg preserveAspectRatio="none" width="100%" height="100%" overflow="visible" style="display: block;" viewBox="0 0 25 24.7691" fill="none" xmlns="http://www.w3.org/2000/svg">
<g id="Group">
<g id="Vector">
</g>
<path id="Vector_2" d="M12.5 0C13.5687 0 14.665 0.0275001 15.7275 0.0725001L16.9825 0.1325L18.1837 0.20375L19.3087 0.28L20.3362 0.36C21.4515 0.444864 22.501 0.920543 23.2999 1.70325C24.0989 2.48596 24.596 3.52549 24.7037 4.63875L24.7537 5.17L24.8475 6.3075C24.935 7.48625 25 8.77125 25 10C25 11.2288 24.935 12.5138 24.8475 13.6925L24.7537 14.83L24.7037 15.3613C24.596 16.4747 24.0987 17.5144 23.2995 18.2971C22.5003 19.0799 21.4505 19.5554 20.335 19.64L19.31 19.7188L18.185 19.7963L16.9825 19.8675L15.7275 19.9275C14.6523 19.9741 13.5762 19.9982 12.5 20C11.4238 19.9982 10.3477 19.9741 9.2725 19.9275L8.0175 19.8675L6.81625 19.7963L5.69125 19.7188L4.66375 19.64C3.54852 19.5551 2.499 19.0795 1.70005 18.2967C0.90111 17.514 0.403988 16.4745 0.29625 15.3613L0.24625 14.83L0.1525 13.6925C0.0572909 12.4639 0.00642455 11.2323 0 10C0 8.77125 0.065 7.48625 0.1525 6.3075L0.24625 5.17L0.29625 4.63875C0.403947 3.52569 0.900889 2.48632 1.69958 1.70363C2.49827 0.920948 3.54749 0.445145 4.6625 0.36L5.68875 0.28L6.81375 0.20375L8.01625 0.1325L9.27125 0.0725001C10.3469 0.025909 11.4234 0.00173698 12.5 0ZM12.5 2.5C11.4687 2.5 10.4075 2.5275 9.375 2.57L8.1525 2.62875L6.97875 2.6975L5.87625 2.7725L4.86625 2.85125C4.33524 2.88842 3.83461 3.11266 3.45333 3.4841C3.07204 3.85555 2.83479 4.35015 2.78375 4.88C2.6375 6.39125 2.5 8.2725 2.5 10C2.5 11.7275 2.6375 13.6088 2.78375 15.12C2.89 16.21 3.755 17.0575 4.86625 17.1488L5.87625 17.2263L6.97875 17.3013L8.1525 17.3713L9.375 17.43C10.4075 17.4725 11.4687 17.5 12.5 17.5C13.5312 17.5 14.5925 17.4725 15.625 17.43L16.8475 17.3713L18.0212 17.3025L19.1237 17.2275L20.1337 17.1488C20.6648 17.1116 21.1654 16.8873 21.5467 16.5159C21.928 16.1445 22.1652 15.6499 22.2162 15.12C22.3625 13.6088 22.5 11.7275 22.5 10C22.5 8.2725 22.3625 6.39125 22.2162 4.88C22.1652 4.35015 21.928 3.85555 21.5467 3.4841C21.1654 3.11266 20.6648 2.88842 20.1337 2.85125L19.1237 2.77375L18.0212 2.69875L16.8475 2.62875L15.625 2.57C14.5839 2.52532 13.542 2.50198 12.5 2.5ZM10 6.96875C9.99992 6.84658 10.0297 6.72624 10.0867 6.61819C10.1437 6.51015 10.2263 6.41767 10.3272 6.34879C10.4281 6.27992 10.5443 6.23674 10.6657 6.22301C10.7871 6.20928 10.91 6.22541 11.0237 6.27L11.125 6.32L16.375 9.35C16.4795 9.41032 16.568 9.49498 16.6328 9.5968C16.6976 9.69861 16.7369 9.81456 16.7474 9.93481C16.7578 10.0551 16.739 10.176 16.6927 10.2875C16.6464 10.399 16.5738 10.4976 16.4812 10.575L16.375 10.65L11.125 13.6813C11.0192 13.7425 10.9 13.777 10.7779 13.7817C10.6557 13.7863 10.5342 13.7611 10.4241 13.7081C10.3139 13.6551 10.2183 13.576 10.1457 13.4776C10.0731 13.3793 10.0257 13.2646 10.0075 13.1438L10 13.0313V6.96875Z" fill="var(--fill-0, black)" fill-opacity="0.7"/>
</g>
</svg>
