<svg preserveAspectRatio="none" width="100%" height="100%" overflow="visible" style="display: block;" viewBox="0 0 20 20" fill="none" xmlns="http://www.w3.org/2000/svg">
<g id="Group">
<path id="Vector" d="M6 9V14M6 6V6.01M10 14V9M14 14V11C14 10.4696 13.7893 9.96086 13.4142 9.58579C13.0391 9.21071 12.5304 9 12 9C11.4696 9 10.9609 9.21071 10.5858 9.58579C10.2107 9.96086 10 10.4696 10 11" stroke="var(--stroke-0, black)" stroke-opacity="0.7" stroke-width="2" stroke-linecap="round" stroke-linejoin="round"/>
<path id="Vector_2" d="M1 5C1 3.93913 1.42143 2.92172 2.17157 2.17157C2.92172 1.42143 3.93913 1 5 1H15C16.0609 1 17.0783 1.42143 17.8284 2.17157C18.5786 2.92172 19 3.93913 19 5V15C19 16.0609 18.5786 17.0783 17.8284 17.8284C17.0783 18.5786 16.0609 19 15 19H5C3.93913 19 2.92172 18.5786 2.17157 17.8284C1.42143 17.0783 1 16.0609 1 15V5Z" stroke="var(--stroke-0, black)" stroke-opacity="0.7" stroke-width="2" stroke-linecap="round" stroke-linejoin="round"/>
</g>
</svg>
